<mxfile host="Electron" agent="Mozilla/5.0 (X11; Linux x86_64) AppleWebKit/537.36 (KHTML, like Gecko) draw.io/26.0.9 Chrome/128.0.6613.186 Electron/32.2.5 Safari/537.36" version="26.0.9">
  <diagram name="Page-1" id="kgNro5y93QIF35jHFry2">
    <mxGraphModel dx="3861" dy="2984" grid="1" gridSize="10" guides="1" tooltips="1" connect="1" arrows="1" fold="1" page="1" pageScale="1" pageWidth="850" pageHeight="1100" math="0" shadow="0">
      <root>
        <mxCell id="0" />
        <mxCell id="1" parent="0" />
        <mxCell id="Brb8-mD9N2KLEKnw9XJb-186" value="Cascading Delete" style="text;html=1;align=center;verticalAlign=middle;whiteSpace=wrap;rounded=0;" parent="1" vertex="1">
          <mxGeometry x="-2141" y="-1090" width="190" height="30" as="geometry" />
        </mxCell>
        <mxCell id="Brb8-mD9N2KLEKnw9XJb-235" value="" style="edgeStyle=orthogonalEdgeStyle;rounded=0;orthogonalLoop=1;jettySize=auto;html=1;" parent="1" source="Brb8-mD9N2KLEKnw9XJb-188" target="Brb8-mD9N2KLEKnw9XJb-200" edge="1">
          <mxGeometry relative="1" as="geometry" />
        </mxCell>
        <mxCell id="Brb8-mD9N2KLEKnw9XJb-188" value="Resources" style="shape=parallelogram;perimeter=parallelogramPerimeter;whiteSpace=wrap;html=1;fixedSize=1;" parent="1" vertex="1">
          <mxGeometry x="-2101" y="-1005" width="120" height="60" as="geometry" />
        </mxCell>
        <mxCell id="Brb8-mD9N2KLEKnw9XJb-194" value="" style="edgeStyle=orthogonalEdgeStyle;rounded=0;orthogonalLoop=1;jettySize=auto;html=1;" parent="1" source="Brb8-mD9N2KLEKnw9XJb-195" target="Brb8-mD9N2KLEKnw9XJb-218" edge="1">
          <mxGeometry relative="1" as="geometry" />
        </mxCell>
        <mxCell id="Brb8-mD9N2KLEKnw9XJb-195" value="Delete Resource" style="rounded=0;whiteSpace=wrap;html=1;" parent="1" vertex="1">
          <mxGeometry x="-1756" y="-1005" width="120" height="60" as="geometry" />
        </mxCell>
        <mxCell id="Brb8-mD9N2KLEKnw9XJb-196" value="" style="edgeStyle=orthogonalEdgeStyle;rounded=0;orthogonalLoop=1;jettySize=auto;html=1;" parent="1" source="Brb8-mD9N2KLEKnw9XJb-200" target="Brb8-mD9N2KLEKnw9XJb-195" edge="1">
          <mxGeometry relative="1" as="geometry" />
        </mxCell>
        <mxCell id="Brb8-mD9N2KLEKnw9XJb-197" value="yes" style="edgeLabel;html=1;align=center;verticalAlign=middle;resizable=0;points=[];" parent="Brb8-mD9N2KLEKnw9XJb-196" connectable="0" vertex="1">
          <mxGeometry x="0.777" y="-2" relative="1" as="geometry">
            <mxPoint x="-26" y="8" as="offset" />
          </mxGeometry>
        </mxCell>
        <mxCell id="TnNt8-dKmfJmjZtN0jdO-4" value="" style="edgeStyle=orthogonalEdgeStyle;rounded=0;orthogonalLoop=1;jettySize=auto;html=1;" parent="1" source="Brb8-mD9N2KLEKnw9XJb-200" target="TnNt8-dKmfJmjZtN0jdO-3" edge="1">
          <mxGeometry relative="1" as="geometry" />
        </mxCell>
        <mxCell id="TnNt8-dKmfJmjZtN0jdO-5" value="no" style="edgeLabel;html=1;align=center;verticalAlign=middle;resizable=0;points=[];" parent="TnNt8-dKmfJmjZtN0jdO-4" vertex="1" connectable="0">
          <mxGeometry x="-0.4786" y="1" relative="1" as="geometry">
            <mxPoint x="29" as="offset" />
          </mxGeometry>
        </mxCell>
        <mxCell id="Brb8-mD9N2KLEKnw9XJb-200" value="Any Resources marked for Deletion" style="rhombus;whiteSpace=wrap;html=1;" parent="1" vertex="1">
          <mxGeometry x="-1931" y="-1035" width="140" height="120" as="geometry" />
        </mxCell>
        <mxCell id="Brb8-mD9N2KLEKnw9XJb-245" style="edgeStyle=orthogonalEdgeStyle;rounded=0;orthogonalLoop=1;jettySize=auto;html=1;" parent="1" source="Brb8-mD9N2KLEKnw9XJb-203" edge="1">
          <mxGeometry relative="1" as="geometry">
            <mxPoint x="-1541.0000000000002" y="-1055" as="targetPoint" />
            <Array as="points">
              <mxPoint x="-1041" y="-1055" />
            </Array>
          </mxGeometry>
        </mxCell>
        <mxCell id="Brb8-mD9N2KLEKnw9XJb-203" value="Mark Resource for deletion" style="rounded=0;whiteSpace=wrap;html=1;" parent="1" vertex="1">
          <mxGeometry x="-1251" y="-895" width="120" height="60" as="geometry" />
        </mxCell>
        <mxCell id="Brb8-mD9N2KLEKnw9XJb-211" value="Finish Deletion" style="ellipse;whiteSpace=wrap;html=1;" parent="1" vertex="1">
          <mxGeometry x="-1921" y="-655" width="120" height="80" as="geometry" />
        </mxCell>
        <mxCell id="Brb8-mD9N2KLEKnw9XJb-214" value="" style="edgeStyle=orthogonalEdgeStyle;rounded=0;orthogonalLoop=1;jettySize=auto;html=1;" parent="1" source="Brb8-mD9N2KLEKnw9XJb-218" target="Brb8-mD9N2KLEKnw9XJb-220" edge="1">
          <mxGeometry relative="1" as="geometry" />
        </mxCell>
        <mxCell id="Brb8-mD9N2KLEKnw9XJb-215" value="yes" style="edgeLabel;html=1;align=center;verticalAlign=middle;resizable=0;points=[];" parent="Brb8-mD9N2KLEKnw9XJb-214" connectable="0" vertex="1">
          <mxGeometry x="-0.6974" relative="1" as="geometry">
            <mxPoint x="2" y="-20" as="offset" />
          </mxGeometry>
        </mxCell>
        <mxCell id="Brb8-mD9N2KLEKnw9XJb-240" style="edgeStyle=orthogonalEdgeStyle;rounded=0;orthogonalLoop=1;jettySize=auto;html=1;entryX=0.5;entryY=0;entryDx=0;entryDy=0;" parent="1" source="Brb8-mD9N2KLEKnw9XJb-218" target="Brb8-mD9N2KLEKnw9XJb-200" edge="1">
          <mxGeometry relative="1" as="geometry">
            <Array as="points">
              <mxPoint x="-1541" y="-1055" />
              <mxPoint x="-1861" y="-1055" />
            </Array>
          </mxGeometry>
        </mxCell>
        <mxCell id="Brb8-mD9N2KLEKnw9XJb-241" value="no" style="edgeLabel;html=1;align=center;verticalAlign=middle;resizable=0;points=[];" parent="Brb8-mD9N2KLEKnw9XJb-240" connectable="0" vertex="1">
          <mxGeometry x="-0.3488" y="-1" relative="1" as="geometry">
            <mxPoint x="-53" y="-29" as="offset" />
          </mxGeometry>
        </mxCell>
        <mxCell id="Brb8-mD9N2KLEKnw9XJb-218" value="Resource Referenced?" style="rhombus;whiteSpace=wrap;html=1;" parent="1" vertex="1">
          <mxGeometry x="-1611" y="-1035" width="140" height="120" as="geometry" />
        </mxCell>
        <mxCell id="Brb8-mD9N2KLEKnw9XJb-219" value="" style="edgeStyle=orthogonalEdgeStyle;rounded=0;orthogonalLoop=1;jettySize=auto;html=1;" parent="1" source="Brb8-mD9N2KLEKnw9XJb-220" target="Brb8-mD9N2KLEKnw9XJb-224" edge="1">
          <mxGeometry relative="1" as="geometry" />
        </mxCell>
        <mxCell id="Brb8-mD9N2KLEKnw9XJb-220" value="Load References" style="whiteSpace=wrap;html=1;" parent="1" vertex="1">
          <mxGeometry x="-1431" y="-1005" width="120" height="60" as="geometry" />
        </mxCell>
        <mxCell id="Brb8-mD9N2KLEKnw9XJb-246" value="" style="edgeStyle=orthogonalEdgeStyle;rounded=0;orthogonalLoop=1;jettySize=auto;html=1;" parent="1" source="Brb8-mD9N2KLEKnw9XJb-224" target="Brb8-mD9N2KLEKnw9XJb-203" edge="1">
          <mxGeometry relative="1" as="geometry" />
        </mxCell>
        <mxCell id="Brb8-mD9N2KLEKnw9XJb-247" style="edgeStyle=orthogonalEdgeStyle;rounded=0;orthogonalLoop=1;jettySize=auto;html=1;" parent="1" source="Brb8-mD9N2KLEKnw9XJb-224" edge="1">
          <mxGeometry relative="1" as="geometry">
            <mxPoint x="-1041" y="-975" as="targetPoint" />
          </mxGeometry>
        </mxCell>
        <mxCell id="Brb8-mD9N2KLEKnw9XJb-248" value="no" style="edgeLabel;html=1;align=center;verticalAlign=middle;resizable=0;points=[];" parent="Brb8-mD9N2KLEKnw9XJb-247" connectable="0" vertex="1">
          <mxGeometry x="-0.0559" y="-2" relative="1" as="geometry">
            <mxPoint y="-12" as="offset" />
          </mxGeometry>
        </mxCell>
        <mxCell id="Brb8-mD9N2KLEKnw9XJb-249" value="" style="edgeStyle=orthogonalEdgeStyle;rounded=0;orthogonalLoop=1;jettySize=auto;html=1;" parent="1" source="Brb8-mD9N2KLEKnw9XJb-224" target="Brb8-mD9N2KLEKnw9XJb-203" edge="1">
          <mxGeometry relative="1" as="geometry" />
        </mxCell>
        <mxCell id="Brb8-mD9N2KLEKnw9XJb-250" value="yes" style="edgeLabel;html=1;align=center;verticalAlign=middle;resizable=0;points=[];" parent="Brb8-mD9N2KLEKnw9XJb-249" connectable="0" vertex="1">
          <mxGeometry x="0.8167" y="2" relative="1" as="geometry">
            <mxPoint x="18" y="-14" as="offset" />
          </mxGeometry>
        </mxCell>
        <mxCell id="Brb8-mD9N2KLEKnw9XJb-224" value="Any Reference Must Have violated" style="rhombus;whiteSpace=wrap;html=1;" parent="1" vertex="1">
          <mxGeometry x="-1261" y="-1035" width="140" height="120" as="geometry" />
        </mxCell>
        <mxCell id="Brb8-mD9N2KLEKnw9XJb-252" value="" style="edgeStyle=orthogonalEdgeStyle;rounded=0;orthogonalLoop=1;jettySize=auto;html=1;" parent="1" source="Brb8-mD9N2KLEKnw9XJb-256" target="Brb8-mD9N2KLEKnw9XJb-257" edge="1">
          <mxGeometry relative="1" as="geometry" />
        </mxCell>
        <mxCell id="Brb8-mD9N2KLEKnw9XJb-253" value="&lt;div&gt;no&lt;/div&gt;&lt;div&gt;&lt;br&gt;&lt;/div&gt;" style="edgeLabel;html=1;align=center;verticalAlign=middle;resizable=0;points=[];rotation=90;" parent="Brb8-mD9N2KLEKnw9XJb-252" connectable="0" vertex="1">
          <mxGeometry x="0.4" y="-1" relative="1" as="geometry">
            <mxPoint x="-31" y="1" as="offset" />
          </mxGeometry>
        </mxCell>
        <mxCell id="Brb8-mD9N2KLEKnw9XJb-254" value="" style="edgeStyle=orthogonalEdgeStyle;rounded=0;orthogonalLoop=1;jettySize=auto;html=1;" parent="1" source="Brb8-mD9N2KLEKnw9XJb-256" target="Brb8-mD9N2KLEKnw9XJb-261" edge="1">
          <mxGeometry relative="1" as="geometry" />
        </mxCell>
        <mxCell id="Brb8-mD9N2KLEKnw9XJb-255" value="yes" style="edgeLabel;html=1;align=center;verticalAlign=middle;resizable=0;points=[];" parent="Brb8-mD9N2KLEKnw9XJb-254" connectable="0" vertex="1">
          <mxGeometry x="-0.05" y="-2" relative="1" as="geometry">
            <mxPoint x="-9" y="18" as="offset" />
          </mxGeometry>
        </mxCell>
        <mxCell id="Brb8-mD9N2KLEKnw9XJb-256" value="&lt;div&gt;all profiles and&amp;nbsp;&lt;/div&gt;&lt;div&gt;attributes, referenced attribute allGroups?&lt;/div&gt;" style="rhombus;whiteSpace=wrap;html=1;" parent="1" vertex="1">
          <mxGeometry x="-1510" y="-2160" width="140" height="120" as="geometry" />
        </mxCell>
        <mxCell id="Brb8-mD9N2KLEKnw9XJb-257" value="Error" style="ellipse;whiteSpace=wrap;html=1;" parent="1" vertex="1">
          <mxGeometry x="-1480" y="-2015" width="80" height="50" as="geometry" />
        </mxCell>
        <mxCell id="Brb8-mD9N2KLEKnw9XJb-258" value="" style="edgeStyle=orthogonalEdgeStyle;rounded=0;orthogonalLoop=1;jettySize=auto;html=1;" parent="1" source="Brb8-mD9N2KLEKnw9XJb-259" target="Brb8-mD9N2KLEKnw9XJb-264" edge="1">
          <mxGeometry relative="1" as="geometry" />
        </mxCell>
        <mxCell id="Brb8-mD9N2KLEKnw9XJb-259" value="&lt;div&gt;Execute Cohort&lt;/div&gt;" style="rounded=0;whiteSpace=wrap;html=1;" parent="1" vertex="1">
          <mxGeometry x="-1170" y="-2130" width="120" height="60" as="geometry" />
        </mxCell>
        <mxCell id="Brb8-mD9N2KLEKnw9XJb-260" value="" style="edgeStyle=orthogonalEdgeStyle;rounded=0;orthogonalLoop=1;jettySize=auto;html=1;" parent="1" source="Brb8-mD9N2KLEKnw9XJb-261" target="Brb8-mD9N2KLEKnw9XJb-259" edge="1">
          <mxGeometry relative="1" as="geometry" />
        </mxCell>
        <mxCell id="Brb8-mD9N2KLEKnw9XJb-261" value="Get directly loaded Attribute Groups" style="rounded=0;whiteSpace=wrap;html=1;" parent="1" vertex="1">
          <mxGeometry x="-1330" y="-2130" width="120" height="60" as="geometry" />
        </mxCell>
        <mxCell id="Brb8-mD9N2KLEKnw9XJb-262" value="" style="edgeStyle=orthogonalEdgeStyle;rounded=0;orthogonalLoop=1;jettySize=auto;html=1;" parent="1" source="Brb8-mD9N2KLEKnw9XJb-264" target="Brb8-mD9N2KLEKnw9XJb-266" edge="1">
          <mxGeometry relative="1" as="geometry" />
        </mxCell>
        <mxCell id="Brb8-mD9N2KLEKnw9XJb-263" value="" style="edgeStyle=orthogonalEdgeStyle;rounded=0;orthogonalLoop=1;jettySize=auto;html=1;" parent="1" source="Brb8-mD9N2KLEKnw9XJb-264" target="Brb8-mD9N2KLEKnw9XJb-268" edge="1">
          <mxGeometry relative="1" as="geometry" />
        </mxCell>
        <mxCell id="Brb8-mD9N2KLEKnw9XJb-264" value="Which method?" style="rhombus;whiteSpace=wrap;html=1;" parent="1" vertex="1">
          <mxGeometry x="-1180" y="-2030" width="140" height="120" as="geometry" />
        </mxCell>
        <mxCell id="Brb8-mD9N2KLEKnw9XJb-265" style="edgeStyle=orthogonalEdgeStyle;rounded=0;orthogonalLoop=1;jettySize=auto;html=1;" parent="1" edge="1">
          <mxGeometry relative="1" as="geometry">
            <mxPoint x="-940" y="-1950" as="sourcePoint" />
            <mxPoint x="-1050" y="-1840" as="targetPoint" />
            <Array as="points">
              <mxPoint x="-940" y="-1840" />
            </Array>
          </mxGeometry>
        </mxCell>
        <mxCell id="Brb8-mD9N2KLEKnw9XJb-266" value="Flare" style="rounded=0;whiteSpace=wrap;html=1;" parent="1" vertex="1">
          <mxGeometry x="-1000" y="-2000" width="120" height="60" as="geometry" />
        </mxCell>
        <mxCell id="Brb8-mD9N2KLEKnw9XJb-267" style="edgeStyle=orthogonalEdgeStyle;rounded=0;orthogonalLoop=1;jettySize=auto;html=1;entryX=0;entryY=0.5;entryDx=0;entryDy=0;" parent="1" source="Brb8-mD9N2KLEKnw9XJb-268" target="Brb8-mD9N2KLEKnw9XJb-270" edge="1">
          <mxGeometry relative="1" as="geometry">
            <Array as="points">
              <mxPoint x="-1270" y="-1840" />
            </Array>
          </mxGeometry>
        </mxCell>
        <mxCell id="Brb8-mD9N2KLEKnw9XJb-268" value="CQL" style="rounded=0;whiteSpace=wrap;html=1;" parent="1" vertex="1">
          <mxGeometry x="-1330" y="-2000" width="120" height="60" as="geometry" />
        </mxCell>
        <mxCell id="Brb8-mD9N2KLEKnw9XJb-269" value="" style="edgeStyle=orthogonalEdgeStyle;rounded=0;orthogonalLoop=1;jettySize=auto;html=1;" parent="1" source="Brb8-mD9N2KLEKnw9XJb-270" edge="1">
          <mxGeometry relative="1" as="geometry">
            <mxPoint x="-1110" y="-1770" as="targetPoint" />
          </mxGeometry>
        </mxCell>
        <mxCell id="Brb8-mD9N2KLEKnw9XJb-270" value="Fetch Patients" style="rounded=0;whiteSpace=wrap;html=1;" parent="1" vertex="1">
          <mxGeometry x="-1170" y="-1870" width="120" height="60" as="geometry" />
        </mxCell>
        <mxCell id="Brb8-mD9N2KLEKnw9XJb-275" value="" style="edgeStyle=orthogonalEdgeStyle;rounded=0;orthogonalLoop=1;jettySize=auto;html=1;" parent="1" source="Brb8-mD9N2KLEKnw9XJb-276" target="Brb8-mD9N2KLEKnw9XJb-256" edge="1">
          <mxGeometry relative="1" as="geometry" />
        </mxCell>
        <mxCell id="Brb8-mD9N2KLEKnw9XJb-276" value="CRTDL" style="shape=parallelogram;perimeter=parallelogramPerimeter;whiteSpace=wrap;html=1;fixedSize=1;" parent="1" vertex="1">
          <mxGeometry x="-1680" y="-2130" width="120" height="60" as="geometry" />
        </mxCell>
        <mxCell id="ow6_NDpieUDIMIQWGwu5-3" value="" style="edgeStyle=orthogonalEdgeStyle;rounded=0;orthogonalLoop=1;jettySize=auto;html=1;" edge="1" parent="1" source="Brb8-mD9N2KLEKnw9XJb-278" target="ow6_NDpieUDIMIQWGwu5-1">
          <mxGeometry relative="1" as="geometry" />
        </mxCell>
        <mxCell id="Brb8-mD9N2KLEKnw9XJb-278" value="Resolve References" style="shape=process;whiteSpace=wrap;html=1;backgroundOutline=1;" parent="1" vertex="1">
          <mxGeometry x="-1170" y="-1650" width="120" height="60" as="geometry" />
        </mxCell>
        <mxCell id="Brb8-mD9N2KLEKnw9XJb-279" value="" style="edgeStyle=orthogonalEdgeStyle;rounded=0;orthogonalLoop=1;jettySize=auto;html=1;" parent="1" source="Brb8-mD9N2KLEKnw9XJb-280" target="Brb8-mD9N2KLEKnw9XJb-282" edge="1">
          <mxGeometry relative="1" as="geometry" />
        </mxCell>
        <mxCell id="Brb8-mD9N2KLEKnw9XJb-280" value="Cascading Delete" style="shape=process;whiteSpace=wrap;html=1;backgroundOutline=1;" parent="1" vertex="1">
          <mxGeometry x="-1170" y="-1460" width="120" height="60" as="geometry" />
        </mxCell>
        <mxCell id="Brb8-mD9N2KLEKnw9XJb-281" value="" style="edgeStyle=orthogonalEdgeStyle;rounded=0;orthogonalLoop=1;jettySize=auto;html=1;" parent="1" source="Brb8-mD9N2KLEKnw9XJb-282" target="Brb8-mD9N2KLEKnw9XJb-285" edge="1">
          <mxGeometry relative="1" as="geometry" />
        </mxCell>
        <mxCell id="Brb8-mD9N2KLEKnw9XJb-282" value="Extraction" style="shape=process;whiteSpace=wrap;html=1;backgroundOutline=1;" parent="1" vertex="1">
          <mxGeometry x="-1170" y="-1360" width="120" height="60" as="geometry" />
        </mxCell>
        <mxCell id="Brb8-mD9N2KLEKnw9XJb-283" value="Bundles" style="ellipse;whiteSpace=wrap;html=1;" parent="1" vertex="1">
          <mxGeometry x="-1150" y="-1160" width="80" height="80" as="geometry" />
        </mxCell>
        <mxCell id="Brb8-mD9N2KLEKnw9XJb-284" value="" style="edgeStyle=orthogonalEdgeStyle;rounded=0;orthogonalLoop=1;jettySize=auto;html=1;" parent="1" source="Brb8-mD9N2KLEKnw9XJb-285" target="Brb8-mD9N2KLEKnw9XJb-283" edge="1">
          <mxGeometry relative="1" as="geometry" />
        </mxCell>
        <mxCell id="Brb8-mD9N2KLEKnw9XJb-285" value="Write out Results" style="shape=process;whiteSpace=wrap;html=1;backgroundOutline=1;" parent="1" vertex="1">
          <mxGeometry x="-1170" y="-1260" width="120" height="60" as="geometry" />
        </mxCell>
        <mxCell id="Brb8-mD9N2KLEKnw9XJb-286" value="Extraction" style="text;html=1;align=center;verticalAlign=middle;whiteSpace=wrap;rounded=0;" parent="1" vertex="1">
          <mxGeometry x="-1700.97" y="-505" width="190" height="30" as="geometry" />
        </mxCell>
        <mxCell id="Brb8-mD9N2KLEKnw9XJb-287" value="" style="edgeStyle=orthogonalEdgeStyle;rounded=0;orthogonalLoop=1;jettySize=auto;html=1;" parent="1" source="Brb8-mD9N2KLEKnw9XJb-288" edge="1">
          <mxGeometry relative="1" as="geometry">
            <mxPoint x="-1500.97" y="-395" as="targetPoint" />
          </mxGeometry>
        </mxCell>
        <mxCell id="Brb8-mD9N2KLEKnw9XJb-288" value="Resources" style="shape=parallelogram;perimeter=parallelogramPerimeter;whiteSpace=wrap;html=1;fixedSize=1;" parent="1" vertex="1">
          <mxGeometry x="-1670.97" y="-425" width="120" height="60" as="geometry" />
        </mxCell>
        <mxCell id="Brb8-mD9N2KLEKnw9XJb-314" value="" style="edgeStyle=orthogonalEdgeStyle;rounded=0;orthogonalLoop=1;jettySize=auto;html=1;" parent="1" source="Brb8-mD9N2KLEKnw9XJb-312" target="Brb8-mD9N2KLEKnw9XJb-313" edge="1">
          <mxGeometry relative="1" as="geometry" />
        </mxCell>
        <mxCell id="Brb8-mD9N2KLEKnw9XJb-312" value="Merge Attribute Groups behaviour for extraction" style="rounded=0;whiteSpace=wrap;html=1;" parent="1" vertex="1">
          <mxGeometry x="-1500" y="-425" width="120" height="60" as="geometry" />
        </mxCell>
        <mxCell id="qXSFNuCbwQx_Ih3ncW2b-6" style="edgeStyle=orthogonalEdgeStyle;rounded=0;orthogonalLoop=1;jettySize=auto;html=1;entryX=0;entryY=0.5;entryDx=0;entryDy=0;" parent="1" source="Brb8-mD9N2KLEKnw9XJb-313" target="qXSFNuCbwQx_Ih3ncW2b-5" edge="1">
          <mxGeometry relative="1" as="geometry" />
        </mxCell>
        <mxCell id="Brb8-mD9N2KLEKnw9XJb-313" value="Copy Attributes" style="rounded=0;whiteSpace=wrap;html=1;" parent="1" vertex="1">
          <mxGeometry x="-1330" y="-425" width="120" height="60" as="geometry" />
        </mxCell>
        <mxCell id="Brb8-mD9N2KLEKnw9XJb-318" value="" style="edgeStyle=orthogonalEdgeStyle;rounded=0;orthogonalLoop=1;jettySize=auto;html=1;" parent="1" source="qXSFNuCbwQx_Ih3ncW2b-5" target="Brb8-mD9N2KLEKnw9XJb-317" edge="1">
          <mxGeometry relative="1" as="geometry">
            <mxPoint x="-1050" y="-395" as="sourcePoint" />
          </mxGeometry>
        </mxCell>
        <mxCell id="Brb8-mD9N2KLEKnw9XJb-317" value="Finish Extraction" style="ellipse;whiteSpace=wrap;html=1;rounded=0;" parent="1" vertex="1">
          <mxGeometry x="-980" y="-435" width="80" height="80" as="geometry" />
        </mxCell>
        <mxCell id="Brb8-mD9N2KLEKnw9XJb-319" value="Write out Results" style="text;html=1;align=center;verticalAlign=middle;whiteSpace=wrap;rounded=0;" parent="1" vertex="1">
          <mxGeometry x="-1720.97" y="-310" width="190" height="30" as="geometry" />
        </mxCell>
        <mxCell id="Brb8-mD9N2KLEKnw9XJb-320" value="" style="edgeStyle=orthogonalEdgeStyle;rounded=0;orthogonalLoop=1;jettySize=auto;html=1;" parent="1" source="Brb8-mD9N2KLEKnw9XJb-321" edge="1">
          <mxGeometry relative="1" as="geometry">
            <mxPoint x="-1510.97" y="-195" as="targetPoint" />
          </mxGeometry>
        </mxCell>
        <mxCell id="Brb8-mD9N2KLEKnw9XJb-321" value="Resources" style="shape=parallelogram;perimeter=parallelogramPerimeter;whiteSpace=wrap;html=1;fixedSize=1;" parent="1" vertex="1">
          <mxGeometry x="-1680.97" y="-225" width="120" height="60" as="geometry" />
        </mxCell>
        <mxCell id="Brb8-mD9N2KLEKnw9XJb-322" value="" style="edgeStyle=orthogonalEdgeStyle;rounded=0;orthogonalLoop=1;jettySize=auto;html=1;" parent="1" source="Brb8-mD9N2KLEKnw9XJb-323" target="Brb8-mD9N2KLEKnw9XJb-325" edge="1">
          <mxGeometry relative="1" as="geometry" />
        </mxCell>
        <mxCell id="Brb8-mD9N2KLEKnw9XJb-323" value="Order Resources by Patient" style="rounded=0;whiteSpace=wrap;html=1;" parent="1" vertex="1">
          <mxGeometry x="-1510.97" y="-225" width="120" height="60" as="geometry" />
        </mxCell>
        <mxCell id="Brb8-mD9N2KLEKnw9XJb-324" value="" style="edgeStyle=orthogonalEdgeStyle;rounded=0;orthogonalLoop=1;jettySize=auto;html=1;" parent="1" source="Brb8-mD9N2KLEKnw9XJb-325" target="Brb8-mD9N2KLEKnw9XJb-327" edge="1">
          <mxGeometry relative="1" as="geometry" />
        </mxCell>
        <mxCell id="Brb8-mD9N2KLEKnw9XJb-325" value="Create Metadata" style="rounded=0;whiteSpace=wrap;html=1;" parent="1" vertex="1">
          <mxGeometry x="-1340.97" y="-225" width="120" height="60" as="geometry" />
        </mxCell>
        <mxCell id="Brb8-mD9N2KLEKnw9XJb-326" value="" style="edgeStyle=orthogonalEdgeStyle;rounded=0;orthogonalLoop=1;jettySize=auto;html=1;" parent="1" source="Brb8-mD9N2KLEKnw9XJb-327" target="Brb8-mD9N2KLEKnw9XJb-328" edge="1">
          <mxGeometry relative="1" as="geometry" />
        </mxCell>
        <mxCell id="Brb8-mD9N2KLEKnw9XJb-327" value="Write Files" style="rounded=0;whiteSpace=wrap;html=1;" parent="1" vertex="1">
          <mxGeometry x="-1180.97" y="-225" width="120" height="60" as="geometry" />
        </mxCell>
        <mxCell id="Brb8-mD9N2KLEKnw9XJb-328" value="Finish Write" style="ellipse;whiteSpace=wrap;html=1;rounded=0;" parent="1" vertex="1">
          <mxGeometry x="-990.97" y="-235" width="80" height="80" as="geometry" />
        </mxCell>
        <mxCell id="qXSFNuCbwQx_Ih3ncW2b-9" value="" style="edgeStyle=orthogonalEdgeStyle;rounded=0;orthogonalLoop=1;jettySize=auto;html=1;" parent="1" source="qXSFNuCbwQx_Ih3ncW2b-4" target="qXSFNuCbwQx_Ih3ncW2b-8" edge="1">
          <mxGeometry relative="1" as="geometry" />
        </mxCell>
        <mxCell id="qXSFNuCbwQx_Ih3ncW2b-4" value="Resource" style="shape=parallelogram;perimeter=parallelogramPerimeter;whiteSpace=wrap;html=1;fixedSize=1;" parent="1" vertex="1">
          <mxGeometry x="-1700.97" y="-40" width="120" height="60" as="geometry" />
        </mxCell>
        <mxCell id="qXSFNuCbwQx_Ih3ncW2b-5" value="Redact uncopied mandatory fields recursively" style="shape=process;whiteSpace=wrap;html=1;backgroundOutline=1;" parent="1" vertex="1">
          <mxGeometry x="-1160" y="-425" width="120" height="60" as="geometry" />
        </mxCell>
        <mxCell id="qXSFNuCbwQx_Ih3ncW2b-7" value="Recursive Redaction" style="text;html=1;align=center;verticalAlign=middle;resizable=0;points=[];autosize=1;strokeColor=none;fillColor=none;" parent="1" vertex="1">
          <mxGeometry x="-1690.97" y="-80" width="130" height="30" as="geometry" />
        </mxCell>
        <mxCell id="qXSFNuCbwQx_Ih3ncW2b-11" value="" style="edgeStyle=orthogonalEdgeStyle;rounded=0;orthogonalLoop=1;jettySize=auto;html=1;" parent="1" source="qXSFNuCbwQx_Ih3ncW2b-8" target="qXSFNuCbwQx_Ih3ncW2b-10" edge="1">
          <mxGeometry relative="1" as="geometry" />
        </mxCell>
        <mxCell id="qXSFNuCbwQx_Ih3ncW2b-8" value="Get applicable Profiles" style="rounded=0;whiteSpace=wrap;html=1;" parent="1" vertex="1">
          <mxGeometry x="-1510.97" y="-40" width="120" height="60" as="geometry" />
        </mxCell>
        <mxCell id="qXSFNuCbwQx_Ih3ncW2b-15" value="" style="edgeStyle=orthogonalEdgeStyle;rounded=0;orthogonalLoop=1;jettySize=auto;html=1;" parent="1" source="qXSFNuCbwQx_Ih3ncW2b-10" target="qXSFNuCbwQx_Ih3ncW2b-14" edge="1">
          <mxGeometry relative="1" as="geometry" />
        </mxCell>
        <mxCell id="qXSFNuCbwQx_Ih3ncW2b-10" value="Get field children" style="whiteSpace=wrap;html=1;rounded=0;" parent="1" vertex="1">
          <mxGeometry x="-1311.8600000000001" y="-40" width="120" height="60" as="geometry" />
        </mxCell>
        <mxCell id="qXSFNuCbwQx_Ih3ncW2b-18" value="" style="edgeStyle=orthogonalEdgeStyle;rounded=0;orthogonalLoop=1;jettySize=auto;html=1;" parent="1" source="qXSFNuCbwQx_Ih3ncW2b-14" target="qXSFNuCbwQx_Ih3ncW2b-17" edge="1">
          <mxGeometry relative="1" as="geometry" />
        </mxCell>
        <mxCell id="qXSFNuCbwQx_Ih3ncW2b-19" value="yes" style="edgeLabel;html=1;align=center;verticalAlign=middle;resizable=0;points=[];" parent="qXSFNuCbwQx_Ih3ncW2b-18" connectable="0" vertex="1">
          <mxGeometry x="-0.1939" y="2" relative="1" as="geometry">
            <mxPoint x="-5" y="-18" as="offset" />
          </mxGeometry>
        </mxCell>
        <mxCell id="qXSFNuCbwQx_Ih3ncW2b-29" value="" style="edgeStyle=orthogonalEdgeStyle;rounded=0;orthogonalLoop=1;jettySize=auto;html=1;" parent="1" source="qXSFNuCbwQx_Ih3ncW2b-14" target="qXSFNuCbwQx_Ih3ncW2b-28" edge="1">
          <mxGeometry relative="1" as="geometry" />
        </mxCell>
        <mxCell id="qXSFNuCbwQx_Ih3ncW2b-14" value="Can field be a slice?" style="rhombus;whiteSpace=wrap;html=1;rounded=0;" parent="1" vertex="1">
          <mxGeometry x="-1090.97" y="-55" width="90" height="90" as="geometry" />
        </mxCell>
        <mxCell id="qXSFNuCbwQx_Ih3ncW2b-22" value="" style="edgeStyle=orthogonalEdgeStyle;rounded=0;orthogonalLoop=1;jettySize=auto;html=1;" parent="1" source="qXSFNuCbwQx_Ih3ncW2b-17" target="qXSFNuCbwQx_Ih3ncW2b-21" edge="1">
          <mxGeometry relative="1" as="geometry" />
        </mxCell>
        <mxCell id="qXSFNuCbwQx_Ih3ncW2b-56" value="no" style="edgeLabel;html=1;align=center;verticalAlign=middle;resizable=0;points=[];" parent="qXSFNuCbwQx_Ih3ncW2b-22" connectable="0" vertex="1">
          <mxGeometry x="-0.3212" y="1" relative="1" as="geometry">
            <mxPoint x="19" as="offset" />
          </mxGeometry>
        </mxCell>
        <mxCell id="qXSFNuCbwQx_Ih3ncW2b-17" value="Get Slicing candidates" style="whiteSpace=wrap;html=1;rounded=0;" parent="1" vertex="1">
          <mxGeometry x="-950.9700000000001" y="-40" width="120" height="60" as="geometry" />
        </mxCell>
        <mxCell id="qXSFNuCbwQx_Ih3ncW2b-38" value="" style="edgeStyle=orthogonalEdgeStyle;rounded=0;orthogonalLoop=1;jettySize=auto;html=1;" parent="1" source="qXSFNuCbwQx_Ih3ncW2b-21" target="qXSFNuCbwQx_Ih3ncW2b-28" edge="1">
          <mxGeometry relative="1" as="geometry" />
        </mxCell>
        <mxCell id="qXSFNuCbwQx_Ih3ncW2b-40" value="yes" style="edgeLabel;html=1;align=center;verticalAlign=middle;resizable=0;points=[];" parent="qXSFNuCbwQx_Ih3ncW2b-38" connectable="0" vertex="1">
          <mxGeometry x="-0.3273" y="6" relative="1" as="geometry">
            <mxPoint y="-36" as="offset" />
          </mxGeometry>
        </mxCell>
        <mxCell id="qXSFNuCbwQx_Ih3ncW2b-58" value="" style="edgeStyle=orthogonalEdgeStyle;rounded=0;orthogonalLoop=1;jettySize=auto;html=1;" parent="1" source="qXSFNuCbwQx_Ih3ncW2b-21" target="qXSFNuCbwQx_Ih3ncW2b-57" edge="1">
          <mxGeometry relative="1" as="geometry" />
        </mxCell>
        <mxCell id="qXSFNuCbwQx_Ih3ncW2b-59" value="no" style="edgeLabel;html=1;align=center;verticalAlign=middle;resizable=0;points=[];" parent="qXSFNuCbwQx_Ih3ncW2b-58" connectable="0" vertex="1">
          <mxGeometry x="-0.1209" y="1" relative="1" as="geometry">
            <mxPoint x="8" y="-29" as="offset" />
          </mxGeometry>
        </mxCell>
        <mxCell id="qXSFNuCbwQx_Ih3ncW2b-21" value="Slicing allowed" style="rhombus;whiteSpace=wrap;html=1;rounded=0;" parent="1" vertex="1">
          <mxGeometry x="-935.97" y="95" width="90" height="90" as="geometry" />
        </mxCell>
        <mxCell id="qXSFNuCbwQx_Ih3ncW2b-33" value="" style="edgeStyle=orthogonalEdgeStyle;rounded=0;orthogonalLoop=1;jettySize=auto;html=1;" parent="1" source="qXSFNuCbwQx_Ih3ncW2b-28" edge="1">
          <mxGeometry relative="1" as="geometry">
            <mxPoint x="-1045.97" y="250" as="targetPoint" />
          </mxGeometry>
        </mxCell>
        <mxCell id="qXSFNuCbwQx_Ih3ncW2b-52" value="yes" style="edgeLabel;html=1;align=center;verticalAlign=middle;resizable=0;points=[];" parent="qXSFNuCbwQx_Ih3ncW2b-33" connectable="0" vertex="1">
          <mxGeometry x="-0.0909" y="3" relative="1" as="geometry">
            <mxPoint x="37" as="offset" />
          </mxGeometry>
        </mxCell>
        <mxCell id="qXSFNuCbwQx_Ih3ncW2b-54" value="" style="edgeStyle=orthogonalEdgeStyle;rounded=0;orthogonalLoop=1;jettySize=auto;html=1;" parent="1" source="qXSFNuCbwQx_Ih3ncW2b-28" edge="1">
          <mxGeometry relative="1" as="geometry">
            <mxPoint x="-1150.97" y="140" as="targetPoint" />
          </mxGeometry>
        </mxCell>
        <mxCell id="qXSFNuCbwQx_Ih3ncW2b-55" value="no" style="edgeLabel;html=1;align=center;verticalAlign=middle;resizable=0;points=[];" parent="qXSFNuCbwQx_Ih3ncW2b-54" connectable="0" vertex="1">
          <mxGeometry x="-0.1357" y="2" relative="1" as="geometry">
            <mxPoint x="3" y="-22" as="offset" />
          </mxGeometry>
        </mxCell>
        <mxCell id="qXSFNuCbwQx_Ih3ncW2b-28" value="Is field set?" style="rhombus;whiteSpace=wrap;html=1;rounded=0;" parent="1" vertex="1">
          <mxGeometry x="-1085.97" y="100" width="80" height="80" as="geometry" />
        </mxCell>
        <mxCell id="qXSFNuCbwQx_Ih3ncW2b-45" style="edgeStyle=orthogonalEdgeStyle;rounded=0;orthogonalLoop=1;jettySize=auto;html=1;entryX=0.5;entryY=1;entryDx=0;entryDy=0;" parent="1" target="qXSFNuCbwQx_Ih3ncW2b-10" edge="1">
          <mxGeometry relative="1" as="geometry">
            <mxPoint x="-1085.9699999999996" y="289.9999999999991" as="sourcePoint" />
          </mxGeometry>
        </mxCell>
        <mxCell id="qXSFNuCbwQx_Ih3ncW2b-46" value="yes" style="edgeLabel;html=1;align=center;verticalAlign=middle;resizable=0;points=[];" parent="qXSFNuCbwQx_Ih3ncW2b-45" connectable="0" vertex="1">
          <mxGeometry x="0.3827" y="-3" relative="1" as="geometry">
            <mxPoint x="-54" as="offset" />
          </mxGeometry>
        </mxCell>
        <mxCell id="qXSFNuCbwQx_Ih3ncW2b-50" value="" style="edgeStyle=orthogonalEdgeStyle;rounded=0;orthogonalLoop=1;jettySize=auto;html=1;" parent="1" target="qXSFNuCbwQx_Ih3ncW2b-49" edge="1">
          <mxGeometry relative="1" as="geometry">
            <mxPoint x="-1005.97" y="290" as="sourcePoint" />
          </mxGeometry>
        </mxCell>
        <mxCell id="qXSFNuCbwQx_Ih3ncW2b-51" value="no" style="edgeLabel;html=1;align=center;verticalAlign=middle;resizable=0;points=[];" parent="qXSFNuCbwQx_Ih3ncW2b-50" connectable="0" vertex="1">
          <mxGeometry x="-0.3841" y="2" relative="1" as="geometry">
            <mxPoint x="10" y="-28" as="offset" />
          </mxGeometry>
        </mxCell>
        <mxCell id="qXSFNuCbwQx_Ih3ncW2b-49" value="Set Data Absent Reason" style="ellipse;whiteSpace=wrap;html=1;rounded=0;" parent="1" vertex="1">
          <mxGeometry x="-925.97" y="250" width="80" height="80" as="geometry" />
        </mxCell>
        <mxCell id="qXSFNuCbwQx_Ih3ncW2b-57" value="Remove Field" style="ellipse;whiteSpace=wrap;html=1;rounded=0;" parent="1" vertex="1">
          <mxGeometry x="-760.97" y="100" width="80" height="80" as="geometry" />
        </mxCell>
        <mxCell id="qXSFNuCbwQx_Ih3ncW2b-60" value="Is field set? " style="rhombus;whiteSpace=wrap;html=1;rounded=0;" parent="1" vertex="1">
          <mxGeometry x="-1085.97" y="250" width="80" height="80" as="geometry" />
        </mxCell>
        <mxCell id="qXSFNuCbwQx_Ih3ncW2b-64" value="" style="edgeStyle=orthogonalEdgeStyle;rounded=0;orthogonalLoop=1;jettySize=auto;html=1;" parent="1" source="qXSFNuCbwQx_Ih3ncW2b-61" target="qXSFNuCbwQx_Ih3ncW2b-63" edge="1">
          <mxGeometry relative="1" as="geometry" />
        </mxCell>
        <mxCell id="qXSFNuCbwQx_Ih3ncW2b-61" value="Is field mandatory? " style="rhombus;whiteSpace=wrap;html=1;rounded=0;" parent="1" vertex="1">
          <mxGeometry x="-1230.97" y="100" width="80" height="80" as="geometry" />
        </mxCell>
        <mxCell id="qXSFNuCbwQx_Ih3ncW2b-63" value="Set Data Absent Reason" style="ellipse;whiteSpace=wrap;html=1;rounded=0;" parent="1" vertex="1">
          <mxGeometry x="-1230.97" y="200" width="80" height="80" as="geometry" />
        </mxCell>
        <mxCell id="qXSFNuCbwQx_Ih3ncW2b-67" value="ignore field" style="ellipse;whiteSpace=wrap;html=1;aspect=fixed;" parent="1" vertex="1">
          <mxGeometry x="-1225.97" y="30" width="65" height="65" as="geometry" />
        </mxCell>
        <mxCell id="2eRo7e5UCQbQcv5oba8E-1" value="" style="edgeStyle=orthogonalEdgeStyle;rounded=0;orthogonalLoop=1;jettySize=auto;html=1;" parent="1" source="2eRo7e5UCQbQcv5oba8E-2" target="2eRo7e5UCQbQcv5oba8E-4" edge="1">
          <mxGeometry relative="1" as="geometry" />
        </mxCell>
        <mxCell id="2eRo7e5UCQbQcv5oba8E-2" value="Patient Batch +&lt;div&gt;AttrGroups&lt;/div&gt;" style="shape=parallelogram;html=1;strokeWidth=2;perimeter=parallelogramPerimeter;whiteSpace=wrap;rounded=1;arcSize=12;size=0.23;" parent="1" vertex="1">
          <mxGeometry x="-640" y="-2045" width="160" height="90" as="geometry" />
        </mxCell>
        <mxCell id="TnNt8-dKmfJmjZtN0jdO-13" value="" style="edgeStyle=orthogonalEdgeStyle;rounded=0;orthogonalLoop=1;jettySize=auto;html=1;" parent="1" source="2eRo7e5UCQbQcv5oba8E-4" target="TnNt8-dKmfJmjZtN0jdO-12" edge="1">
          <mxGeometry relative="1" as="geometry" />
        </mxCell>
        <mxCell id="2eRo7e5UCQbQcv5oba8E-4" value="Generate Queries for each attribute group" style="rounded=1;whiteSpace=wrap;html=1;absoluteArcSize=1;arcSize=14;strokeWidth=2;" parent="1" vertex="1">
          <mxGeometry x="-445" y="-2050" width="170" height="100" as="geometry" />
        </mxCell>
        <mxCell id="2eRo7e5UCQbQcv5oba8E-5" value="updated Patient Batch +&lt;div&gt;Unique Directly Loaded Resources&lt;/div&gt;" style="shape=parallelogram;perimeter=parallelogramPerimeter;whiteSpace=wrap;html=1;fixedSize=1;rounded=1;arcSize=14;strokeWidth=2;" parent="1" vertex="1">
          <mxGeometry x="460" y="-2037.5" width="170" height="75" as="geometry" />
        </mxCell>
        <mxCell id="2eRo7e5UCQbQcv5oba8E-6" value="" style="edgeStyle=orthogonalEdgeStyle;rounded=0;orthogonalLoop=1;jettySize=auto;html=1;" parent="1" source="2eRo7e5UCQbQcv5oba8E-7" target="2eRo7e5UCQbQcv5oba8E-10" edge="1">
          <mxGeometry relative="1" as="geometry" />
        </mxCell>
        <mxCell id="2eRo7e5UCQbQcv5oba8E-7" value="Patient +&lt;div&gt;Unique Directly Loaded&amp;nbsp;&lt;/div&gt;&lt;div&gt;Resources&lt;/div&gt;" style="shape=parallelogram;html=1;strokeWidth=2;perimeter=parallelogramPerimeter;whiteSpace=wrap;rounded=1;arcSize=12;size=0.23;" parent="1" vertex="1">
          <mxGeometry x="-530.49" y="-1805" width="179.03" height="100" as="geometry" />
        </mxCell>
        <mxCell id="2eRo7e5UCQbQcv5oba8E-8" value="For Each Patient" style="shape=callout;whiteSpace=wrap;html=1;perimeter=calloutPerimeter;" parent="1" vertex="1">
          <mxGeometry x="-519.97" y="-1870" width="120" height="80" as="geometry" />
        </mxCell>
        <mxCell id="TnNt8-dKmfJmjZtN0jdO-53" value="" style="edgeStyle=orthogonalEdgeStyle;rounded=0;orthogonalLoop=1;jettySize=auto;html=1;" parent="1" source="2eRo7e5UCQbQcv5oba8E-10" target="2eRo7e5UCQbQcv5oba8E-11" edge="1">
          <mxGeometry relative="1" as="geometry" />
        </mxCell>
        <mxCell id="2eRo7e5UCQbQcv5oba8E-10" value="Resolve References" style="rounded=1;whiteSpace=wrap;html=1;strokeWidth=2;arcSize=12;" parent="1" vertex="1">
          <mxGeometry x="-249.97" y="-1807.5" width="170" height="105" as="geometry" />
        </mxCell>
        <mxCell id="2eRo7e5UCQbQcv5oba8E-11" value="Patient +&lt;div&gt;Unique Loaded&amp;nbsp;&lt;/div&gt;&lt;div&gt;Resources&lt;/div&gt;" style="shape=parallelogram;html=1;strokeWidth=2;perimeter=parallelogramPerimeter;whiteSpace=wrap;rounded=1;arcSize=12;size=0.23;" parent="1" vertex="1">
          <mxGeometry x="-0.9699999999999989" y="-1800" width="160" height="90" as="geometry" />
        </mxCell>
        <mxCell id="2eRo7e5UCQbQcv5oba8E-12" value="Resolve References" style="shape=callout;whiteSpace=wrap;html=1;perimeter=calloutPerimeter;" parent="1" vertex="1">
          <mxGeometry x="-509.97" y="-1620" width="120" height="80" as="geometry" />
        </mxCell>
        <mxCell id="2eRo7e5UCQbQcv5oba8E-13" value="" style="edgeStyle=orthogonalEdgeStyle;rounded=0;orthogonalLoop=1;jettySize=auto;html=1;" parent="1" source="2eRo7e5UCQbQcv5oba8E-14" target="2eRo7e5UCQbQcv5oba8E-16" edge="1">
          <mxGeometry relative="1" as="geometry" />
        </mxCell>
        <mxCell id="2eRo7e5UCQbQcv5oba8E-14" value="Resource" style="shape=parallelogram;html=1;strokeWidth=2;perimeter=parallelogramPerimeter;whiteSpace=wrap;rounded=1;arcSize=12;size=0.23;" parent="1" vertex="1">
          <mxGeometry x="-499.97" y="-1530" width="100" height="60" as="geometry" />
        </mxCell>
        <mxCell id="2eRo7e5UCQbQcv5oba8E-15" value="" style="edgeStyle=orthogonalEdgeStyle;rounded=0;orthogonalLoop=1;jettySize=auto;html=1;" parent="1" source="2eRo7e5UCQbQcv5oba8E-16" target="2eRo7e5UCQbQcv5oba8E-17" edge="1">
          <mxGeometry relative="1" as="geometry" />
        </mxCell>
        <mxCell id="2eRo7e5UCQbQcv5oba8E-16" value="Extract&amp;nbsp; and process References" style="rounded=1;whiteSpace=wrap;html=1;strokeWidth=2;arcSize=12;" parent="1" vertex="1">
          <mxGeometry x="-329.97" y="-1530" width="120" height="60" as="geometry" />
        </mxCell>
        <mxCell id="2eRo7e5UCQbQcv5oba8E-17" value="Source Resource +&lt;div&gt;Reference +&lt;div&gt;AttrGroups&lt;/div&gt;&lt;/div&gt;" style="shape=parallelogram;perimeter=parallelogramPerimeter;whiteSpace=wrap;html=1;fixedSize=1;rounded=1;strokeWidth=2;arcSize=12;" parent="1" vertex="1">
          <mxGeometry x="-129.97" y="-1530" width="120" height="60" as="geometry" />
        </mxCell>
        <mxCell id="2eRo7e5UCQbQcv5oba8E-19" value="" style="edgeStyle=orthogonalEdgeStyle;rounded=0;orthogonalLoop=1;jettySize=auto;html=1;" parent="1" source="2eRo7e5UCQbQcv5oba8E-20" target="2eRo7e5UCQbQcv5oba8E-23" edge="1">
          <mxGeometry relative="1" as="geometry" />
        </mxCell>
        <mxCell id="2eRo7e5UCQbQcv5oba8E-20" value="Source Resource +&lt;div&gt;Reference +&lt;div&gt;ref. AttrGroups&lt;/div&gt;&lt;/div&gt;" style="shape=parallelogram;perimeter=parallelogramPerimeter;whiteSpace=wrap;html=1;fixedSize=1;rounded=1;strokeWidth=2;arcSize=12;" parent="1" vertex="1">
          <mxGeometry x="-500.97" y="-1330" width="120" height="60" as="geometry" />
        </mxCell>
        <mxCell id="2eRo7e5UCQbQcv5oba8E-21" value="For Each Reference" style="shape=callout;whiteSpace=wrap;html=1;perimeter=calloutPerimeter;" parent="1" vertex="1">
          <mxGeometry x="-510.97" y="-1400" width="120" height="80" as="geometry" />
        </mxCell>
        <mxCell id="TnNt8-dKmfJmjZtN0jdO-70" value="" style="edgeStyle=orthogonalEdgeStyle;rounded=0;orthogonalLoop=1;jettySize=auto;html=1;" parent="1" source="2eRo7e5UCQbQcv5oba8E-23" target="2eRo7e5UCQbQcv5oba8E-30" edge="1">
          <mxGeometry relative="1" as="geometry" />
        </mxCell>
        <mxCell id="2eRo7e5UCQbQcv5oba8E-23" value="Load Resources&lt;div&gt;(including Filter Match from all AttrGroups)&lt;/div&gt;" style="whiteSpace=wrap;html=1;rounded=1;strokeWidth=2;arcSize=12;" parent="1" vertex="1">
          <mxGeometry x="-300.97" y="-1330" width="120" height="60" as="geometry" />
        </mxCell>
        <mxCell id="2eRo7e5UCQbQcv5oba8E-26" value="" style="edgeStyle=orthogonalEdgeStyle;rounded=0;orthogonalLoop=1;jettySize=auto;html=1;exitX=0.5;exitY=1;exitDx=0;exitDy=0;" parent="1" source="2eRo7e5UCQbQcv5oba8E-30" target="2eRo7e5UCQbQcv5oba8E-35" edge="1">
          <mxGeometry relative="1" as="geometry">
            <mxPoint x="-40.970000000000255" y="-1260" as="sourcePoint" />
            <Array as="points">
              <mxPoint x="-40" y="-1232" />
              <mxPoint x="-40" y="-1219" />
              <mxPoint x="-41" y="-1219" />
            </Array>
          </mxGeometry>
        </mxCell>
        <mxCell id="2eRo7e5UCQbQcv5oba8E-27" value="No" style="edgeLabel;html=1;align=center;verticalAlign=middle;resizable=0;points=[];" parent="2eRo7e5UCQbQcv5oba8E-26" vertex="1" connectable="0">
          <mxGeometry x="-0.156" y="1" relative="1" as="geometry">
            <mxPoint as="offset" />
          </mxGeometry>
        </mxCell>
        <mxCell id="TnNt8-dKmfJmjZtN0jdO-56" value="" style="edgeStyle=orthogonalEdgeStyle;rounded=0;orthogonalLoop=1;jettySize=auto;html=1;" parent="1" source="2eRo7e5UCQbQcv5oba8E-30" target="TnNt8-dKmfJmjZtN0jdO-55" edge="1">
          <mxGeometry relative="1" as="geometry" />
        </mxCell>
        <mxCell id="TnNt8-dKmfJmjZtN0jdO-71" value="yes" style="edgeLabel;html=1;align=center;verticalAlign=middle;resizable=0;points=[];" parent="TnNt8-dKmfJmjZtN0jdO-56" vertex="1" connectable="0">
          <mxGeometry x="-0.2312" y="2" relative="1" as="geometry">
            <mxPoint x="15" y="-18" as="offset" />
          </mxGeometry>
        </mxCell>
        <mxCell id="2eRo7e5UCQbQcv5oba8E-30" value="At least One ref. Attribute Group&amp;nbsp;&amp;nbsp;&lt;div&gt;Must Have Conditions&amp;nbsp;&lt;div&gt;Match?&lt;/div&gt;&lt;/div&gt;" style="rhombus;whiteSpace=wrap;html=1;rounded=1;strokeWidth=2;arcSize=12;" parent="1" vertex="1">
          <mxGeometry x="-129.97" y="-1383.75" width="200.97" height="167.5" as="geometry" />
        </mxCell>
        <mxCell id="2eRo7e5UCQbQcv5oba8E-31" value="" style="edgeStyle=orthogonalEdgeStyle;rounded=0;orthogonalLoop=1;jettySize=auto;html=1;" parent="1" source="2eRo7e5UCQbQcv5oba8E-35" target="2eRo7e5UCQbQcv5oba8E-36" edge="1">
          <mxGeometry relative="1" as="geometry" />
        </mxCell>
        <mxCell id="2eRo7e5UCQbQcv5oba8E-32" value="Yes" style="edgeLabel;html=1;align=center;verticalAlign=middle;resizable=0;points=[];" parent="2eRo7e5UCQbQcv5oba8E-31" vertex="1" connectable="0">
          <mxGeometry x="0.0954" relative="1" as="geometry">
            <mxPoint as="offset" />
          </mxGeometry>
        </mxCell>
        <mxCell id="2eRo7e5UCQbQcv5oba8E-33" value="" style="edgeStyle=orthogonalEdgeStyle;rounded=0;orthogonalLoop=1;jettySize=auto;html=1;" parent="1" source="2eRo7e5UCQbQcv5oba8E-35" target="2eRo7e5UCQbQcv5oba8E-37" edge="1">
          <mxGeometry relative="1" as="geometry" />
        </mxCell>
        <mxCell id="2eRo7e5UCQbQcv5oba8E-34" value="No" style="edgeLabel;html=1;align=center;verticalAlign=middle;resizable=0;points=[];" parent="2eRo7e5UCQbQcv5oba8E-33" vertex="1" connectable="0">
          <mxGeometry x="-0.1425" y="1" relative="1" as="geometry">
            <mxPoint as="offset" />
          </mxGeometry>
        </mxCell>
        <mxCell id="2eRo7e5UCQbQcv5oba8E-35" value="Reference Must Have?" style="rhombus;whiteSpace=wrap;html=1;rounded=1;strokeWidth=2;arcSize=12;" parent="1" vertex="1">
          <mxGeometry x="-80.97" y="-1180" width="80" height="80" as="geometry" />
        </mxCell>
        <mxCell id="2eRo7e5UCQbQcv5oba8E-36" value="Mark Source Resource as Deleted" style="whiteSpace=wrap;html=1;rounded=1;strokeWidth=2;arcSize=12;" parent="1" vertex="1">
          <mxGeometry x="-260.97" y="-1170" width="120" height="60" as="geometry" />
        </mxCell>
        <mxCell id="2eRo7e5UCQbQcv5oba8E-37" value="Replace Reference with Data Absent Reason in Source Resource" style="rounded=1;whiteSpace=wrap;html=1;strokeWidth=2;arcSize=12;" parent="1" vertex="1">
          <mxGeometry x="-100.97" y="-1010" width="120" height="60" as="geometry" />
        </mxCell>
        <mxCell id="2eRo7e5UCQbQcv5oba8E-41" value="For Each Patient Batch" style="shape=callout;whiteSpace=wrap;html=1;perimeter=calloutPerimeter;" parent="1" vertex="1">
          <mxGeometry x="-621" y="-2130" width="120" height="80" as="geometry" />
        </mxCell>
        <mxCell id="TnNt8-dKmfJmjZtN0jdO-31" value="" style="edgeStyle=orthogonalEdgeStyle;rounded=0;orthogonalLoop=1;jettySize=auto;html=1;" parent="1" source="TnNt8-dKmfJmjZtN0jdO-1" target="Brb8-mD9N2KLEKnw9XJb-278" edge="1">
          <mxGeometry relative="1" as="geometry" />
        </mxCell>
        <mxCell id="TnNt8-dKmfJmjZtN0jdO-1" value="Fetch and assign Resources for directly loaded Attribute Groups" style="shape=process;whiteSpace=wrap;html=1;backgroundOutline=1;" parent="1" vertex="1">
          <mxGeometry x="-1170" y="-1770" width="120" height="60" as="geometry" />
        </mxCell>
        <mxCell id="TnNt8-dKmfJmjZtN0jdO-6" value="" style="edgeStyle=orthogonalEdgeStyle;rounded=0;orthogonalLoop=1;jettySize=auto;html=1;" parent="1" source="TnNt8-dKmfJmjZtN0jdO-3" target="Brb8-mD9N2KLEKnw9XJb-211" edge="1">
          <mxGeometry relative="1" as="geometry" />
        </mxCell>
        <mxCell id="TnNt8-dKmfJmjZtN0jdO-7" value="no" style="edgeLabel;html=1;align=center;verticalAlign=middle;resizable=0;points=[];" parent="TnNt8-dKmfJmjZtN0jdO-6" vertex="1" connectable="0">
          <mxGeometry x="-0.1429" relative="1" as="geometry">
            <mxPoint x="30" as="offset" />
          </mxGeometry>
        </mxCell>
        <mxCell id="TnNt8-dKmfJmjZtN0jdO-9" value="" style="edgeStyle=orthogonalEdgeStyle;rounded=0;orthogonalLoop=1;jettySize=auto;html=1;" parent="1" source="TnNt8-dKmfJmjZtN0jdO-3" target="TnNt8-dKmfJmjZtN0jdO-8" edge="1">
          <mxGeometry relative="1" as="geometry" />
        </mxCell>
        <mxCell id="TnNt8-dKmfJmjZtN0jdO-10" value="yes" style="edgeLabel;html=1;align=center;verticalAlign=middle;resizable=0;points=[];" parent="TnNt8-dKmfJmjZtN0jdO-9" vertex="1" connectable="0">
          <mxGeometry x="0.0783" y="-4" relative="1" as="geometry">
            <mxPoint x="3" y="-29" as="offset" />
          </mxGeometry>
        </mxCell>
        <mxCell id="TnNt8-dKmfJmjZtN0jdO-3" value="Any directly loaded Attribute Group with must haves without resources?" style="rhombus;whiteSpace=wrap;html=1;" parent="1" vertex="1">
          <mxGeometry x="-1936" y="-875" width="150" height="150" as="geometry" />
        </mxCell>
        <mxCell id="TnNt8-dKmfJmjZtN0jdO-8" value="Drop Patient" style="ellipse;whiteSpace=wrap;html=1;" parent="1" vertex="1">
          <mxGeometry x="-1671" y="-840" width="80" height="80" as="geometry" />
        </mxCell>
        <mxCell id="TnNt8-dKmfJmjZtN0jdO-11" value="Fetch and assign Resources for directly loaded Attribute Groups" style="text;html=1;align=center;verticalAlign=middle;whiteSpace=wrap;rounded=0;" parent="1" vertex="1">
          <mxGeometry x="-770" y="-2050" width="110" height="100" as="geometry" />
        </mxCell>
        <mxCell id="TnNt8-dKmfJmjZtN0jdO-26" value="" style="edgeStyle=orthogonalEdgeStyle;rounded=0;orthogonalLoop=1;jettySize=auto;html=1;" parent="1" source="TnNt8-dKmfJmjZtN0jdO-12" edge="1">
          <mxGeometry relative="1" as="geometry">
            <mxPoint x="-11" y="-2000" as="targetPoint" />
          </mxGeometry>
        </mxCell>
        <mxCell id="TnNt8-dKmfJmjZtN0jdO-12" value="Fetch Ressources" style="rounded=1;whiteSpace=wrap;html=1;absoluteArcSize=1;arcSize=14;strokeWidth=2;" parent="1" vertex="1">
          <mxGeometry x="-230" y="-2050" width="170" height="100" as="geometry" />
        </mxCell>
        <mxCell id="TnNt8-dKmfJmjZtN0jdO-29" value="" style="edgeStyle=orthogonalEdgeStyle;rounded=0;orthogonalLoop=1;jettySize=auto;html=1;" parent="1" target="TnNt8-dKmfJmjZtN0jdO-28" edge="1">
          <mxGeometry relative="1" as="geometry">
            <mxPoint x="120" y="-2000" as="sourcePoint" />
          </mxGeometry>
        </mxCell>
        <mxCell id="TnNt8-dKmfJmjZtN0jdO-30" value="" style="edgeStyle=orthogonalEdgeStyle;rounded=0;orthogonalLoop=1;jettySize=auto;html=1;" parent="1" source="TnNt8-dKmfJmjZtN0jdO-28" target="2eRo7e5UCQbQcv5oba8E-5" edge="1">
          <mxGeometry relative="1" as="geometry" />
        </mxCell>
        <mxCell id="TnNt8-dKmfJmjZtN0jdO-28" value="Throw away patients and their resources where attribute group with mus haves is empty" style="rounded=1;whiteSpace=wrap;html=1;absoluteArcSize=1;arcSize=14;strokeWidth=2;" parent="1" vertex="1">
          <mxGeometry x="219" y="-2050" width="170" height="100" as="geometry" />
        </mxCell>
        <mxCell id="TnNt8-dKmfJmjZtN0jdO-32" value="Assign Attribute Groups to Resources&amp;nbsp;" style="shape=process;whiteSpace=wrap;html=1;backgroundOutline=1;" parent="1" vertex="1">
          <mxGeometry x="-21" y="-2045" width="150" height="90" as="geometry" />
        </mxCell>
        <mxCell id="TnNt8-dKmfJmjZtN0jdO-46" value="" style="edgeStyle=orthogonalEdgeStyle;rounded=0;orthogonalLoop=1;jettySize=auto;html=1;" parent="1" source="TnNt8-dKmfJmjZtN0jdO-40" target="TnNt8-dKmfJmjZtN0jdO-45" edge="1">
          <mxGeometry relative="1" as="geometry" />
        </mxCell>
        <mxCell id="TnNt8-dKmfJmjZtN0jdO-47" value="yes" style="edgeLabel;html=1;align=center;verticalAlign=middle;resizable=0;points=[];" parent="TnNt8-dKmfJmjZtN0jdO-46" vertex="1" connectable="0">
          <mxGeometry x="-0.0297" y="2" relative="1" as="geometry">
            <mxPoint x="29" y="4" as="offset" />
          </mxGeometry>
        </mxCell>
        <mxCell id="TnNt8-dKmfJmjZtN0jdO-40" value="New Unprocessed Resource + Attribute Group Combinations" style="rhombus;whiteSpace=wrap;html=1;rounded=1;strokeWidth=2;arcSize=12;" parent="1" vertex="1">
          <mxGeometry x="425" y="-1377.5" width="145.47" height="155" as="geometry" />
        </mxCell>
        <mxCell id="TnNt8-dKmfJmjZtN0jdO-45" value="add to new References to be resolved&amp;nbsp;" style="shape=process;whiteSpace=wrap;html=1;backgroundOutline=1;rounded=1;strokeWidth=2;arcSize=12;" parent="1" vertex="1">
          <mxGeometry x="437.72999999999996" y="-1130" width="120" height="60" as="geometry" />
        </mxCell>
        <mxCell id="TnNt8-dKmfJmjZtN0jdO-54" value="&lt;span style=&quot;color: rgb(0, 0, 0); font-family: Helvetica; font-size: 12px; font-style: normal; font-variant-ligatures: normal; font-variant-caps: normal; font-weight: 400; letter-spacing: normal; orphans: 2; text-align: center; text-indent: 0px; text-transform: none; widows: 2; word-spacing: 0px; -webkit-text-stroke-width: 0px; white-space: normal; background-color: rgb(251, 251, 251); text-decoration-thickness: initial; text-decoration-style: initial; text-decoration-color: initial; float: none; display: inline !important;&quot;&gt;Extract process References&lt;/span&gt;" style="text;whiteSpace=wrap;html=1;" parent="1" vertex="1">
          <mxGeometry x="-650.97" y="-1320" width="140" height="40" as="geometry" />
        </mxCell>
        <mxCell id="TnNt8-dKmfJmjZtN0jdO-57" value="" style="edgeStyle=orthogonalEdgeStyle;rounded=0;orthogonalLoop=1;jettySize=auto;html=1;" parent="1" source="TnNt8-dKmfJmjZtN0jdO-55" target="TnNt8-dKmfJmjZtN0jdO-40" edge="1">
          <mxGeometry relative="1" as="geometry" />
        </mxCell>
        <mxCell id="TnNt8-dKmfJmjZtN0jdO-79" style="edgeStyle=orthogonalEdgeStyle;rounded=0;orthogonalLoop=1;jettySize=auto;html=1;" parent="1" source="TnNt8-dKmfJmjZtN0jdO-55" target="TnNt8-dKmfJmjZtN0jdO-78" edge="1">
          <mxGeometry relative="1" as="geometry" />
        </mxCell>
        <mxCell id="TnNt8-dKmfJmjZtN0jdO-55" value="Assign Attribute Groups to Resources&amp;nbsp;" style="shape=process;whiteSpace=wrap;html=1;backgroundOutline=1;" parent="1" vertex="1">
          <mxGeometry x="120" y="-1345" width="150" height="90" as="geometry" />
        </mxCell>
        <mxCell id="TnNt8-dKmfJmjZtN0jdO-59" value="Need Management Structure for this" style="shape=callout;whiteSpace=wrap;html=1;perimeter=calloutPerimeter;" parent="1" vertex="1">
          <mxGeometry x="437.73" y="-1460" width="120" height="80" as="geometry" />
        </mxCell>
        <mxCell id="TnNt8-dKmfJmjZtN0jdO-74" value="" style="edgeStyle=orthogonalEdgeStyle;rounded=0;orthogonalLoop=1;jettySize=auto;html=1;" parent="1" source="TnNt8-dKmfJmjZtN0jdO-72" target="TnNt8-dKmfJmjZtN0jdO-73" edge="1">
          <mxGeometry relative="1" as="geometry" />
        </mxCell>
        <mxCell id="TnNt8-dKmfJmjZtN0jdO-72" value="Resource +&amp;nbsp;&lt;div&gt;Attribute Groups&lt;/div&gt;" style="shape=parallelogram;html=1;strokeWidth=2;perimeter=parallelogramPerimeter;whiteSpace=wrap;rounded=1;arcSize=12;size=0.23;" parent="1" vertex="1">
          <mxGeometry x="-410" y="-825" width="130.97" height="70" as="geometry" />
        </mxCell>
        <mxCell id="TnNt8-dKmfJmjZtN0jdO-76" value="" style="edgeStyle=orthogonalEdgeStyle;rounded=0;orthogonalLoop=1;jettySize=auto;html=1;" parent="1" source="TnNt8-dKmfJmjZtN0jdO-73" target="TnNt8-dKmfJmjZtN0jdO-75" edge="1">
          <mxGeometry relative="1" as="geometry" />
        </mxCell>
        <mxCell id="TnNt8-dKmfJmjZtN0jdO-73" value="Write into Resource applicable Attribute Groups as extension" style="whiteSpace=wrap;html=1;strokeWidth=2;rounded=1;arcSize=12;" parent="1" vertex="1">
          <mxGeometry x="-210.97000000000003" y="-820" width="120" height="60" as="geometry" />
        </mxCell>
        <mxCell id="TnNt8-dKmfJmjZtN0jdO-75" value="annotated Resource" style="shape=parallelogram;html=1;strokeWidth=2;perimeter=parallelogramPerimeter;whiteSpace=wrap;rounded=1;arcSize=12;size=0.23;" parent="1" vertex="1">
          <mxGeometry x="-50" y="-820" width="100" height="60" as="geometry" />
        </mxCell>
        <mxCell id="TnNt8-dKmfJmjZtN0jdO-77" value="&lt;span style=&quot;color: rgb(0, 0, 0); font-family: Helvetica; font-size: 12px; font-style: normal; font-variant-ligatures: normal; font-variant-caps: normal; font-weight: 400; letter-spacing: normal; orphans: 2; text-align: center; text-indent: 0px; text-transform: none; widows: 2; word-spacing: 0px; -webkit-text-stroke-width: 0px; white-space: normal; background-color: rgb(251, 251, 251); text-decoration-thickness: initial; text-decoration-style: initial; text-decoration-color: initial; display: inline !important; float: none;&quot;&gt;Assign Attribute Groups to Resources&amp;nbsp;&lt;/span&gt;" style="text;whiteSpace=wrap;html=1;" parent="1" vertex="1">
          <mxGeometry x="-479.94000000000005" y="-820" width="89.97" height="40" as="geometry" />
        </mxCell>
        <mxCell id="TnNt8-dKmfJmjZtN0jdO-78" value="annotated&amp;nbsp;&lt;div&gt;Resources&lt;/div&gt;" style="ellipse;whiteSpace=wrap;html=1;" parent="1" vertex="1">
          <mxGeometry x="135" y="-1180" width="120" height="80" as="geometry" />
        </mxCell>
        <mxCell id="ow6_NDpieUDIMIQWGwu5-4" value="" style="edgeStyle=orthogonalEdgeStyle;rounded=0;orthogonalLoop=1;jettySize=auto;html=1;" edge="1" parent="1" source="ow6_NDpieUDIMIQWGwu5-1" target="Brb8-mD9N2KLEKnw9XJb-280">
          <mxGeometry relative="1" as="geometry" />
        </mxCell>
        <mxCell id="ow6_NDpieUDIMIQWGwu5-1" value="Check Consent" style="shape=process;whiteSpace=wrap;html=1;backgroundOutline=1;" vertex="1" parent="1">
          <mxGeometry x="-1170" y="-1560" width="120" height="60" as="geometry" />
        </mxCell>
      </root>
    </mxGraphModel>
  </diagram>
</mxfile>
